<svg id="sky" xmlns="http://www.w3.org/2000/svg" viewBox="0 0 4737.33 1920"><defs><style>.cls-1{fill:#d9e8ff;}.cls-2{fill:#cae0ff;}</style></defs><title>cloud_sky</title><rect class="cls-1" y="300.41" width="4737.33" height="1619.59"/><rect class="cls-2" width="4737.33" height="300.41"/><g id="clouds"><path class="cls-1" d="M4126.7,319.09c65,28.8,127.7,86.41,197.35,100.81,72,18,162.52,10.8,234.5-7.2,62.69-14.4,116.09-64.81,178.78-79.21,0,22.87,0,1586.51,0,1586.51h-789.1s-0.31-1548.36-.31-1626.12C4006,286.68,4071,290.28,4126.7,319.09Z"/><path class="cls-2" d="M4737.33,333.49c-62.69,14.4-116.09,64.81-178.78,79.21-72,18-162.52,25.2-234.5,7.2-69.65-14.4-132.34-72-197.35-100.81-55.72-28.8-120.73-32.4-178.78-25.2,0-60.18.39-294.17,0.39-294.17h789S4737.33,312.9,4737.33,333.49Z"/><path class="cls-1" d="M3768.81,319.09c-65,28.8-127.7,86.41-197.35,100.81-72,18-162.52,10.8-234.5-7.2-62.69-14.4-116.09-64.81-178.78-79.21,0,22.87,0,1586.51,0,1586.51h789.1s0.31-1548.36.31-1626.12C3889.54,286.68,3824.53,290.28,3768.81,319.09Z"/><path class="cls-2" d="M3158.18,333.49c62.69,14.4,116.09,64.81,178.78,79.21,72,18,162.52,25.2,234.5,7.2,69.65-14.4,132.34-72,197.35-100.81,55.72-28.8,120.73-32.4,178.78-25.2,0-60.18-.39-294.17-0.39-294.17h-789S3158.18,312.9,3158.18,333.49Z"/><path class="cls-1" d="M2547.2,319.09c65,28.8,127.7,86.41,197.35,100.81,72,18,162.52,10.8,234.5-7.2,62.69-14.4,116.09-64.81,178.78-79.21,0,22.87,0,1586.51,0,1586.51h-789.1s-0.31-1548.36-.31-1626.12C2426.47,286.68,2491.48,290.28,2547.2,319.09Z"/><path class="cls-2" d="M3157.83,333.49c-62.69,14.4-116.09,64.81-178.78,79.21-72,18-162.52,25.2-234.5,7.2-69.65-14.4-132.34-72-197.35-100.81-55.72-28.8-120.73-32.4-178.78-25.2,0-60.18.39-294.17,0.39-294.17h789S3157.83,312.9,3157.83,333.49Z"/><path class="cls-1" d="M2189.31,319.09c-65,28.8-127.7,86.41-197.35,100.81-72,18-162.52,10.8-234.5-7.2-62.69-14.4-116.09-64.81-178.78-79.21,0,22.87,0,1586.51,0,1586.51h789.1s0.31-1548.36.31-1626.12C2310,286.68,2245,290.28,2189.31,319.09Z"/><path class="cls-2" d="M1578.68,333.49c62.69,14.4,116.09,64.81,178.78,79.21,72,18,162.52,25.2,234.5,7.2,69.65-14.4,132.34-72,197.35-100.81,55.72-28.8,120.73-32.4,178.78-25.2,0-60.18-.39-294.17-0.39-294.17h-789S1578.68,312.9,1578.68,333.49Z"/><path class="cls-1" d="M968.53,319.09c65,28.8,127.7,86.41,197.35,100.81,72,18,162.52,10.8,234.5-7.2,62.69-14.4,116.09-64.81,178.78-79.21,0,22.87,0,1586.51,0,1586.51H790.06s-0.31-1548.36-.31-1626.12C847.79,286.68,912.8,290.28,968.53,319.09Z"/><path class="cls-2" d="M1579.15,333.49c-62.69,14.4-116.09,64.81-178.78,79.21-72,18-162.52,25.2-234.5,7.2-69.65-14.4-132.34-72-197.35-100.81-55.72-28.8-120.73-32.4-178.78-25.2,0-60.18.39-294.17,0.39-294.17h789S1579.15,312.9,1579.15,333.49Z"/><path class="cls-1" d="M610.63,319.09c-65,28.8-127.7,86.41-197.35,100.81-72,18-162.52,10.8-234.5-7.2C116.09,398.29,62.69,347.89,0,333.49,0,356.36,0,1920,0,1920H789.1s0.31-1548.36.31-1626.12C731.36,286.68,666.35,290.28,610.63,319.09Z"/><path class="cls-2" d="M0,333.49c62.69,14.4,116.09,64.81,178.78,79.21,72,18,162.52,25.2,234.5,7.2,69.65-14.4,132.34-72,197.35-100.81,55.72-28.8,120.73-32.4,178.78-25.2C789.41,233.7,789-.28,789-0.28H0S0,312.9,0,333.49Z"/></g></svg>