<?xml version="1.0" encoding="utf-8"?>
<!-- Generator: Adobe Illustrator 19.2.1, SVG Export Plug-In . SVG Version: 6.00 Build 0)  -->
<svg version="1.1" id="Layer_1" xmlns="http://www.w3.org/2000/svg" xmlns:xlink="http://www.w3.org/1999/xlink" x="0px" y="0px"
	 viewBox="0 0 1741.4 113.7" style="enable-background:new 0 0 1741.4 113.7;" xml:space="preserve">
<style type="text/css">
	.st0{fill:#D68709;}
	.st1{fill:#C67705;}
	.st2{fill:#F8A300;}
</style>
<g>
	<path class="st0" d="M889.9,23.7c0,0-9.1-7.4-30.5,12.4c0,0-20.6,14.9-23.9,21.5c0,0-9.1,20.6-0.8,28.1c0,0,14-5.8,31.4-21.5
		c0,0,12.4-23.9,27.2-17.3C893.2,46.8,901.4,39.4,889.9,23.7z"/>
	<path class="st1" d="M1732.1,0c0,0-512.4,49.7-519.6,50.7c-159.9,21.4-322.3-7.4-322.3-7.4c-19.9-4.3-26.8,20.4-26.8,20.4
		c48.7,38.6,367.6,10.5,367.6,10.5l510.5-52.3L1732.1,0z"/>
	<path class="st0" d="M809.3,62.8c0,0-43.7,32.9-340.1,10.4L0,31.1v28l469.2,41.4c0,0,319.4,21.6,367.3-17.9
		C836.5,82.7,829.1,58.1,809.3,62.8z"/>
	<path class="st2" d="M842,50.1c0,0-3.3,16.5-7.4,35.5c0,0,8.3,14,18.2,4.1c0,0,6.6-7.4,14-19l-0.8-6.6l21.5,9.1
		c0,0-4.1,31.4-43.7,40.4c0,0-38.8-1.7-38.8-62.7c0,0,19-34.7,52-11.6L842,50.1z"/>
</g>
</svg>
