<?xml version="1.0" encoding="utf-8"?>
<!-- Generator: Adobe Illustrator 18.0.0, SVG Export Plug-In . SVG Version: 6.00 Build 0)  -->
<!DOCTYPE svg PUBLIC "-//W3C//DTD SVG 1.1//EN" "http://www.w3.org/Graphics/SVG/1.1/DTD/svg11.dtd">
<svg version="1.1" xmlns="http://www.w3.org/2000/svg" xmlns:xlink="http://www.w3.org/1999/xlink" x="0px" y="0px"
	 viewBox="0 0 968.7 304.4" enable-background="new 0 0 968.7 304.4" xml:space="preserve">
<g id="all">
</g>
<g id="buildings">
</g>
<g id="sky">
</g>
<g id="assets">
	<path fill="#FFFFFF" d="M916.9,103.4c4.3-8.2,6.8-17.4,6.8-27.3V58.8c0-32.3-26.5-58.8-58.8-58.8H317.6
		c-32.3,0-58.8,26.5-58.8,58.8v17.3c0,32.3,26.5,58.8,58.8,58.8h339.6c-4.2,8.1-6.6,17.1-6.6,26.8v7.8H58.8
		C26.5,169.5,0,196,0,228.3v17.3c0,32.3,26.5,58.8,58.8,58.8h761c32.3,0,58.8-26.5,58.8-58.8v-7.8h31.3c32.3,0,58.8-26.5,58.8-58.8
		v-17.3C968.7,131.8,946,106.9,916.9,103.4z"/>
</g>
</svg>
