<?xml version="1.0" encoding="utf-8"?>
<!-- Generator: Adobe Illustrator 18.0.0, SVG Export Plug-In . SVG Version: 6.00 Build 0)  -->
<!DOCTYPE svg PUBLIC "-//W3C//DTD SVG 1.1//EN" "http://www.w3.org/Graphics/SVG/1.1/DTD/svg11.dtd">
<svg version="1.1" id="Layer_1" xmlns="http://www.w3.org/2000/svg" xmlns:xlink="http://www.w3.org/1999/xlink" x="0px" y="0px"
	 viewBox="0 0 4460.1 901.9" style="enable-background:new 0 0 4460.1 901.9;" xml:space="preserve">
<style type="text/css">
	.st0{opacity:0.7;fill:#FFFFFF;}
	.st1{opacity:0.4;fill:#FFFFFF;}
	.st2{opacity:0.95;fill:#FFFFFF;}
</style>
<g>
	<path class="st0" d="M361,285.4H55.1c-12.1,0-22,9.9-22,22v6.5c0,12.1,9.9,22,22,22h44.1c-2.6,3.6-4.1,8-4.1,12.8v6.5
		c0,3.3,0.8,6.4,2.1,9.2H22c-12.1,0-22,9.9-22,22v6.5c0,12.1,9.9,22,22,22h234.4c12.1,0,22-9.9,22-22v-6.5c0-12.1-9.9-22-22-22
		h-24.4c1.3-2.8,2.1-5.9,2.1-9.2v-6.5c0-4.8-1.5-9.2-4.1-12.8h131c12.1,0,22-9.9,22-22v-6.5C383.1,295.4,373.2,285.4,361,285.4z"/>
	<path class="st1" d="M1030.9,742.4c2.3-4.4,3.6-9.4,3.6-14.7v-9.3c0-17.4-14.2-31.6-31.6-31.6H708.7c-17.4,0-31.6,14.2-31.6,31.6
		v9.3c0,17.4,14.2,31.6,31.6,31.6h182.5c-2.2,4.3-3.5,9.2-3.5,14.4v4.2H569.6c-17.4,0-31.6,14.2-31.6,31.6v9.3
		c0,17.4,14.2,31.6,31.6,31.6h409.1c17.4,0,31.6-14.2,31.6-31.6v-4.2h16.8c17.4,0,31.6-14.2,31.6-31.6v-9.3
		C1058.7,757.7,1046.5,744.3,1030.9,742.4z"/>
	<path class="st2" d="M1141.8,123.6h-34c1.8-3.9,2.9-8.3,2.9-12.9v-9.1c0-6.6-2.2-12.8-5.8-17.8h14.5c16.9,0,30.7-13.8,30.7-30.7
		v-9.1c0-16.9-13.8-30.7-30.7-30.7H693.1c-16.9,0-30.7,13.8-30.7,30.7v9.1c0,16.9,13.8,30.7,30.7,30.7h229.6
		c-3.6,5-5.8,11.2-5.8,17.8v9.1c0,4.6,1.1,9,2.9,12.9H815.1c-16.9,0-30.7,13.8-30.7,30.7v9.1c0,16.9,13.8,30.7,30.7,30.7h326.7
		c16.9,0,30.7-13.8,30.7-30.7v-9.1C1172.6,137.5,1158.7,123.6,1141.8,123.6z"/>
	<path class="st0" d="M1940.9,417.9c2.5-4.8,4-10.2,4-16v-10.2c0-18.9-15.5-34.5-34.5-34.5h-320.7c-18.9,0-34.5,15.5-34.5,34.5v10.2
		c0,18.9,15.5,34.5,34.5,34.5h199c-2.4,4.7-3.8,10-3.8,15.7v4.6h-346.9c-18.9,0-34.5,15.5-34.5,34.5v10.2
		c0,18.9,15.5,34.5,34.5,34.5h446c18.9,0,34.5-15.5,34.5-34.5v-4.6h18.4c18.9,0,34.5-15.5,34.5-34.5V452
		C1971.2,434.5,1957.9,419.9,1940.9,417.9z"/>
	<path class="st2" d="M2493.3,75.9h-291.5c-11.6,0-21,9.5-21,21v6.2c0,11.6,9.5,21,21,21h42c-2.5,3.4-3.9,7.6-3.9,12.2v6.2
		c0,3.1,0.7,6.1,2,8.8h-71.6c-11.6,0-21,9.5-21,21v6.2c0,11.6,9.5,21,21,21h223.3c11.6,0,21-9.5,21-21v-6.2c0-11.6-9.5-21-21-21
		h-23.2c1.3-2.7,2-5.7,2-8.8v-6.2c0-4.5-1.5-8.7-3.9-12.2h124.8c11.6,0,21-9.5,21-21v-6.2C2514.3,85.4,2504.9,75.9,2493.3,75.9z"/>
	<path class="st1" d="M2374.4,790h-26.7c1.4-3.1,2.3-6.5,2.3-10.2v-7.1c0-5.2-1.7-10.1-4.6-14h11.4c13.3,0,24.2-10.9,24.2-24.2v-7.1
		c0-13.3-10.9-24.2-24.2-24.2h-335.9c-13.3,0-24.2,10.9-24.2,24.2v7.1c0,13.3,10.9,24.2,24.2,24.2h180.9c-2.9,4-4.6,8.8-4.6,14v7.1
		c0,3.6,0.8,7.1,2.3,10.2h-82.5c-13.3,0-24.2,10.9-24.2,24.2v7.1c0,13.3,10.9,24.2,24.2,24.2h257.3c13.3,0,24.2-10.9,24.2-24.2v-7.1
		C2398.6,800.9,2387.7,790,2374.4,790z"/>
	<path class="st0" d="M3141.5,312.1h-305.9c-12.1,0-22,9.9-22,22v6.5c0,12.1,9.9,22,22,22h44.1c-2.6,3.6-4.1,8-4.1,12.8v6.5
		c0,3.3,0.8,6.4,2.1,9.2h-75.1c-12.1,0-22,9.9-22,22v6.5c0,12.1,9.9,22,22,22h234.4c12.1,0,22-9.9,22-22v-6.5c0-12.1-9.9-22-22-22
		h-24.4c1.3-2.8,2.1-5.9,2.1-9.2v-6.5c0-4.8-1.5-9.2-4.1-12.8h131c12.1,0,22-9.9,22-22v-6.5C3163.5,322,3153.6,312.1,3141.5,312.1z"
		/>
	<path class="st1" d="M3511.7,729.1c2.3-4.4,3.6-9.4,3.6-14.7v-9.3c0-17.4-14.2-31.6-31.6-31.6h-294.2c-17.4,0-31.6,14.2-31.6,31.6
		v9.3c0,17.4,14.2,31.6,31.6,31.6H3372c-2.2,4.3-3.5,9.2-3.5,14.4v4.2h-318.1c-17.4,0-31.6,14.2-31.6,31.6v9.3
		c0,17.4,14.2,31.6,31.6,31.6h409.1c17.4,0,31.6-14.2,31.6-31.6v-4.2h16.8c17.4,0,31.6-14.2,31.6-31.6v-9.3
		C3539.5,744.4,3527.3,731,3511.7,729.1z"/>
	<path class="st2" d="M3653,110.3h-34c1.8-3.9,2.9-8.3,2.9-12.9v-9.1c0-6.6-2.2-12.8-5.8-17.8h14.5c16.9,0,30.7-13.8,30.7-30.7v-9.1
		c0-16.9-13.8-30.7-30.7-30.7h-426.4c-16.9,0-30.7,13.8-30.7,30.7v9.1c0,16.9,13.8,30.7,30.7,30.7h229.6c-3.6,5-5.8,11.2-5.8,17.8
		v9.1c0,4.6,1.1,9,2.9,12.9h-104.7c-16.9,0-30.7,13.8-30.7,30.7v9.1c0,16.9,13.8,30.7,30.7,30.7H3653c16.9,0,30.7-13.8,30.7-30.7
		V141C3683.7,124.1,3669.9,110.3,3653,110.3z"/>
	<path class="st0" d="M4385.4,340.5c2.5-4.8,4-10.2,4-16v-10.2c0-18.9-15.5-34.5-34.5-34.5h-320.7c-18.9,0-34.5,15.5-34.5,34.5v10.2
		c0,18.9,15.5,34.5,34.5,34.5h199c-2.4,4.7-3.8,10-3.8,15.7v4.6h-346.9c-18.9,0-34.5,15.5-34.5,34.5v10.2
		c0,18.9,15.5,34.5,34.5,34.5h446c18.9,0,34.5-15.5,34.5-34.5v-4.6h18.4c18.9,0,34.5-15.5,34.5-34.5v-10.2
		C4415.7,357.2,4402.4,342.6,4385.4,340.5z"/>
	<path class="st1" d="M4435.9,846.3h-26.7c1.4-3.1,2.3-6.5,2.3-10.2V829c0-5.2-1.7-10.1-4.6-14h11.4c13.3,0,24.2-10.9,24.2-24.2
		v-7.1c0-13.3-10.9-24.2-24.2-24.2h-335.9c-13.3,0-24.2,10.9-24.2,24.2v7.1c0,13.3,10.9,24.2,24.2,24.2h180.9c-2.9,4-4.6,8.8-4.6,14
		v7.1c0,3.6,0.8,7.1,2.3,10.2h-82.5c-13.3,0-24.2,10.9-24.2,24.2v7.1c0,13.3,10.9,24.2,24.2,24.2h257.3c13.3,0,24.2-10.9,24.2-24.2
		v-7.1C4460.1,857.2,4449.2,846.3,4435.9,846.3z"/>
</g>
</svg>
