<?xml version="1.0" encoding="utf-8"?>
<!-- Generator: Adobe Illustrator 18.0.0, SVG Export Plug-In . SVG Version: 6.00 Build 0)  -->
<!DOCTYPE svg PUBLIC "-//W3C//DTD SVG 1.1//EN" "http://www.w3.org/Graphics/SVG/1.1/DTD/svg11.dtd">
<svg version="1.1" xmlns="http://www.w3.org/2000/svg" xmlns:xlink="http://www.w3.org/1999/xlink" x="0px" y="0px"
	 viewBox="0 0 956.4 339" enable-background="new 0 0 956.4 339" xml:space="preserve">
<g id="all">
</g>
<g id="buildings">
</g>
<g id="sky">
</g>
<g id="assets">
	<path fill="#FFFFFF" d="M898.8,206.8h-63.7c3.4-7.4,5.4-15.5,5.4-24.2v-17c0-12.5-4-24-10.8-33.4h27.1c31.7,0,57.6-25.9,57.6-57.6
		v-17c0-31.7-25.9-57.6-57.6-57.6H57.6C25.9,0,0,25.9,0,57.6v17c0,31.7,25.9,57.6,57.6,57.6H488c-6.8,9.4-10.8,21-10.8,33.4v17
		c0,8.6,2,16.8,5.4,24.2H286.4c-31.7,0-57.6,25.9-57.6,57.6v17c0,31.7,25.9,57.6,57.6,57.6h612.4c31.7,0,57.6-25.9,57.6-57.6v-17
		C956.4,232.7,930.5,206.8,898.8,206.8z"/>
</g>
</svg>
