<?xml version="1.0" encoding="utf-8"?>
<!-- Generator: Adobe Illustrator 18.0.0, SVG Export Plug-In . SVG Version: 6.00 Build 0)  -->
<!DOCTYPE svg PUBLIC "-//W3C//DTD SVG 1.1//EN" "http://www.w3.org/Graphics/SVG/1.1/DTD/svg11.dtd">
<svg version="1.1" xmlns="http://www.w3.org/2000/svg" xmlns:xlink="http://www.w3.org/1999/xlink" x="0px" y="0px"
	 viewBox="0 0 952 322.4" enable-background="new 0 0 952 322.4" xml:space="preserve">
<g id="all">
</g>
<g id="buildings">
</g>
<g id="sky">
</g>
<g id="assets">
	<path fill="#FFFFFF" d="M897.2,0H137c-30.1,0-54.8,24.7-54.8,54.8V71c0,30.1,24.7,54.8,54.8,54.8h109.6c-6.5,9-10.3,20-10.3,31.8
		v16.2c0,8.2,1.9,16,5.1,23H54.8C24.7,196.7,0,221.3,0,251.5v16.2c0,30.1,24.7,54.8,54.8,54.8h582.5c30.1,0,54.8-24.7,54.8-54.8
		v-16.2c0-30.1-24.7-54.8-54.8-54.8h-60.5c3.3-7,5.1-14.8,5.1-23v-16.2c0-11.8-3.8-22.8-10.3-31.8h325.6c30.1,0,54.8-24.7,54.8-54.8
		V54.8C952,24.7,927.4,0,897.2,0z"/>
</g>
</svg>
