<svg id="assets" xmlns="http://www.w3.org/2000/svg" xmlns:xlink="http://www.w3.org/1999/xlink" viewBox="0 0 348.19 1596.16"><defs><style>.cls-1{fill:none;}.cls-2{clip-path:url(#clip-path);}.cls-3{fill:#0038a8;}.cls-4{fill:#ce1126;}.cls-5{fill:#fff;}.cls-6{fill:#fcd116;}.cls-7{fill:#bcbcbc;}</style><clipPath id="clip-path"><path class="cls-1" d="M59.22,43s28,30,115.28-.9,129.88,5.14,129.88,5.14l0.8,51.07,0.88,56.44s-82.21-32.77-125.19,2S60.33,163,60.33,163l-0.56-60.47Z"/></clipPath></defs><title>flag</title><g id="flag"><g class="cls-2"><g id="layer2"><path id="rect2170" class="cls-3" d="M58.2,41.13C140.45,82.82,222.71-3,305,37l0.82,62.1c-82.25-40.84-164.51,45-246.76,4.12Z"/><path id="rect2171" class="cls-4" d="M59,103.24c82.25,40.84,164.51-45,246.76-4.12l0.82,62.11c-82.25-41.69-164.51,44.12-246.76,4.11Z"/><path id="path3144" class="cls-5" d="M60,165.42L58.2,41.13C94,79.82,129.89,94.3,165.74,105.53,130.49,135.28,95.23,161.89,60,165.42Z"/></g><g id="layer3"><path id="path4144" class="cls-6" d="M148.9,116.42l-3-3.27q-2.32,1.25-4.64,2.46L144,111l-3-3.39q2.36,0.26,4.73.48l2.82-4.58,0.18,4.87q2.35,0.24,4.7.44-2.31,1.35-4.62,2.66Z"/><path id="path4146" class="cls-6" d="M73.76,159.59q-2.18-1.87-4.35-3.85-1.79,1-3.58,1.92l0.83-4.49q-2.15-2.08-4.31-4.27,2.43,0.78,4.86,1.43l0.91-4.46,2.18,5.25q2.44,0.6,4.87,1.07-1.76,1.15-3.52,2.23Z"/><path id="path4148" class="cls-6" d="M74.26,66.93q-2.45-1-4.9-2.16l-2,3.71-1.13-5.25q-2.44-1.28-4.89-2.7,2.1-.27,4.2-0.64l-1-5.26q1.86,2.43,3.72,4.77,2.12-.39,4.24-0.89l-1.9,3.85Q72.42,64.69,74.26,66.93Z"/><path id="path5169" class="cls-6" d="M109.91,114.88c0.09,6.8-5.36,12.47-12.17,11.86s-12.41-7.33-12.5-14.16S90.6,101.42,97.41,102,109.82,108.05,109.91,114.88Z"/><path id="path7113" class="cls-6" d="M97.62,114.27L95.72,90l1.56-1.43L99,90.22Z"/><path id="path8084" class="cls-6" d="M97.62,114.32q1.35-11.25,2.7-22.53h0.05l1.22,1.38Q99.61,103.78,97.62,114.32Z"/><path id="path9055" class="cls-6" d="M97.62,114.27q5.93-8.52,11.86-17.61h0.05l1.74,0Q104.46,105.81,97.62,114.27Z"/><path id="path9057" class="cls-6" d="M97.62,114.32c5.24-5.6,10.49-11.55,15.73-17.79l2.29-.09,0,2.18C109.66,104.25,103.64,109.52,97.62,114.32Z"/><path id="path9059" class="cls-6" d="M97.64,114.27c6-4.19,12-8.84,18.07-13.86h0.06l0,2C109.7,106.74,103.67,110.74,97.64,114.27Z"/><path id="path9061" class="cls-6" d="M97.64,114.33A141.25,141.25,0,0,0,119,110.21H119l1.31,1.14A138.46,138.46,0,0,1,97.64,114.33Z"/><path id="path9063" class="cls-6" d="M97.64,114.33a137.29,137.29,0,0,0,24.16-1.69h0.06l1.69,1.39-1.64,1.82A137.19,137.19,0,0,1,97.64,114.33Z"/><path id="path9065" class="cls-6" d="M97.64,114.27a138.73,138.73,0,0,0,23,3l-0.06.07-1.16,1.32A142.39,142.39,0,0,1,97.64,114.27Z"/><path id="path9067" class="cls-6" d="M97.64,114.27c6.14,4.63,12.28,8.77,18.42,12.53v0.06l0.09,1.78C110,124.27,103.81,119.51,97.64,114.27Z"/><path id="path9069" class="cls-6" d="M97.64,114.33c6.18,5.9,12.36,11.32,18.54,16.35v0.12l0,2.16-2.22.1C108.49,127.15,103.07,120.93,97.64,114.33Z"/><path id="path9071" class="cls-6" d="M97.64,114.27q7.19,9.84,14.37,18.85h0.06l-1.91,0Q103.9,124,97.64,114.27Z"/><path id="path9073" class="cls-6" d="M97.64,114.27q2.3,11,4.61,22l-1.28,1.1Q99.3,125.83,97.64,114.27Z"/><path id="path9075" class="cls-6" d="M97.64,114.27l1.93,24.47-0.06.06L98,140.28l-1.63-1.76Z"/><path id="path9077" class="cls-6" d="M97.64,114.27q-1.36,11.35-2.72,22.68L95,137.08l-1.44-1.59Q95.62,124.92,97.64,114.27Z"/><path id="path9079" class="cls-6" d="M97.64,114.27q-6,8.65-12,16.65l-0.06-.07-1.79-.31Q90.7,122.86,97.64,114.27Z"/><path id="path9081" class="cls-6" d="M97.64,114.33c-5.27,5.63-10.53,10.91-15.8,15.77H81.78l-2.16-.6,0-2.23A196.28,196.28,0,0,0,97.64,114.33Z"/><path id="path9083" class="cls-6" d="M97.64,114.33a167.69,167.69,0,0,1-18.07,10.88l0.06,0.08-0.09-1.87A147.77,147.77,0,0,0,97.64,114.33Z"/><path id="path9085" class="cls-6" d="M97.64,114.27a103.76,103.76,0,0,1-21.6.21l0.06,0-1.31-1.63A103.75,103.75,0,0,0,97.64,114.27Z"/><path id="path9087" class="cls-6" d="M97.64,114.27a105.3,105.3,0,0,1-24.35-3.37l-0.06-.08-1.44-2,1.58-1.07A113.72,113.72,0,0,0,97.64,114.27Z"/><path id="path9089" class="cls-6" d="M97.64,114.33a120.27,120.27,0,0,1-22.74-7.49l1.16-.88A127.87,127.87,0,0,0,97.64,114.33Z"/><path id="path9091" class="cls-6" d="M97.64,114.27A233.63,233.63,0,0,1,79.21,98.83l0-1.8C85.34,103.34,91.49,109,97.64,114.27Z"/><path id="path9093" class="cls-6" d="M97.64,114.27C91.48,108.37,85.32,102,79.16,95v0.06l0-2.23,2.28,0.58C86.82,100.79,92.23,107.72,97.64,114.27Z"/><path id="path9095" class="cls-6" d="M97.64,114.33q-7.09-9.74-14.18-20.39l0.19,0,1.54,0.27Q91.41,104.65,97.64,114.33Z"/><path id="path9097" class="cls-6" d="M97.64,114.27q-2.27-10.91-4.54-21.91v0.12l1.21-1.33Q96,102.74,97.64,114.27Z"/></g></g><rect class="cls-7" x="54.92" y="23.58" width="7.09" height="1552.15" rx="0.58" ry="0.58"/></g></svg>