<?xml version="1.0" encoding="utf-8"?>
<!-- Generator: Adobe Illustrator 18.0.0, SVG Export Plug-In . SVG Version: 6.00 Build 0)  -->
<!DOCTYPE svg PUBLIC "-//W3C//DTD SVG 1.1//EN" "http://www.w3.org/Graphics/SVG/1.1/DTD/svg11.dtd">
<svg version="1.1" xmlns="http://www.w3.org/2000/svg" xmlns:xlink="http://www.w3.org/1999/xlink" x="0px" y="0px"
	 viewBox="0 0 824.3 481.7" style="enable-background:new 0 0 824.3 481.7;" xml:space="preserve">
<style type="text/css">
	.st0{fill:#D9E8FF;}
	.st1{fill:#CAE0FF;}
	.st2{opacity:0.7;fill:#FFFFFF;}
	.st3{opacity:0.4;fill:#FFFFFF;}
	.st4{opacity:0.95;fill:#FFFFFF;}
	.st5{fill:#828282;}
	.st6{fill:#E2DAC9;}
	.st7{fill:#606060;}
	.st8{fill:#231F20;}
	.st9{clip-path:url(#SVGID_2_);}
	.st10{fill:#E8E32A;}
	.st11{fill:#9A9182;}
	.st12{fill:#C0B6A3;}
	.st13{fill:#D2C5AD;}
	.st14{fill:#AEA496;}
	.st15{fill:#777064;}
	.st16{fill:#F2EBDA;}
	.st17{fill:#E8EFF9;stroke:#000000;stroke-miterlimit:10;}
	.st18{fill:#AF5941;}
	.st19{fill:#FFFFFF;stroke:#FFFFFF;stroke-width:2;stroke-miterlimit:10;}
	.st20{fill:#FFFFFF;}
	.st21{clip-path:url(#SVGID_4_);}
	.st22{fill:#0038A8;}
	.st23{fill:#CE1126;}
	.st24{fill:#FCD116;}
	.st25{fill:#BCBCBC;}
	.st26{fill:#66B84C;}
	.st27{fill:#A8A8A8;}
	.st28{fill:#B5B5B5;}
	.st29{fill-rule:evenodd;clip-rule:evenodd;fill:#A8A8A8;}
	.st30{fill:#8E5904;}
	.st31{fill:#EE4748;}
	.st32{fill:#E72929;}
	.st33{fill:#C02026;}
	.st34{fill:#FFFDEF;}
	.st35{fill:#963C3C;}
	.st36{fill:#7C2512;}
	.st37{fill:#8E2919;}
	.st38{fill:#E2E2E2;}
	.st39{fill:#C4C4C4;}
	.st40{fill:#6B3F3A;}
	.st41{fill:#B7B7B7;}
	.st42{fill:#ADADAD;}
	.st43{fill:#BFBFBF;}
	.st44{fill:#C12D2D;}
	.st45{fill:#F2BD3D;}
	.st46{fill:#F2F2F2;}
	.st47{fill:#3D3939;}
	.st48{fill:#D1D1D1;}
	.st49{fill:#C65454;}
	.st50{fill:#EF5925;}
	.st51{fill:#CFF8FF;}
	.st52{fill:#513000;}
	.st53{fill:#721010;}
	.st54{fill:#2C6EC2;}
	.st55{opacity:0.8;fill:#A5A5A5;}
	.st56{fill:#71857C;}
	.st57{fill:#FAF9FE;}
	.st58{fill-rule:evenodd;clip-rule:evenodd;fill:#99CF3C;}
	.st59{opacity:0.8;fill:#DCFCFF;}
	.st60{fill:#324450;}
	.st61{opacity:0.8;fill:#FFFFFF;}
	.st62{fill:#2C3E48;}
	.st63{fill:#2D6F7A;}
	.st64{fill:#4C4C4C;}
	.st65{fill:#232323;}
	.st66{fill:#6D6D6D;}
	.st67{display:none;}
	.st68{display:inline;fill:#D83A03;}
	.st69{display:inline;fill:#F8A300;}
	.st70{opacity:0.2;}
	.st71{fill:#96969A;}
	.st72{fill:#0EA58F;}
	.st73{opacity:0.7;}
	.st74{fill:#119985;}
	.st75{fill:#FF1F76;}
	.st76{fill:#F2E4CC;}
	.st77{fill:#5FDA00;}
	.st78{fill:#E8D9C4;}
	.st79{fill:#1082FF;}
	.st80{fill:#980D00;}
	.st81{fill:#994491;}
	.st82{fill:#FDCC2A;}
	.st83{fill:#0CAA93;}
	.st84{fill:#AFAFAF;}
	.st85{fill:#FFE7A4;}
	.st86{display:inline;}
	.st87{display:inline;opacity:0.7;fill:#FFFFFF;}
	.st88{display:inline;opacity:0.4;fill:#FFFFFF;}
	.st89{display:inline;opacity:0.95;fill:#FFFFFF;}
	.st90{clip-path:url(#SVGID_6_);}
	.st91{clip-path:url(#SVGID_8_);}
	.st92{display:inline;fill:#BCBCBC;}
	.st93{display:inline;opacity:0.2;}
	.st94{display:inline;fill:#96969A;}
	.st95{display:inline;fill:#0EA58F;}
	.st96{display:inline;opacity:0.7;}
	.st97{display:inline;fill:#D1D1D1;}
	.st98{display:inline;fill:#980D00;}
	.st99{display:inline;fill:#828282;}
	.st100{display:inline;fill:#E2DAC9;}
	.st101{display:inline;fill:#606060;}
	.st102{clip-path:url(#SVGID_10_);}
	.st103{display:inline;fill:#9A9182;}
	.st104{display:inline;fill:#C0B6A3;}
	.st105{display:inline;fill:#D2C5AD;}
	.st106{display:inline;fill:#AEA496;}
	.st107{display:inline;fill:#777064;}
	.st108{display:inline;fill:#F2EBDA;}
	.st109{display:inline;fill:#E8EFF9;stroke:#000000;stroke-miterlimit:10;}
	.st110{display:inline;fill:#AF5941;}
	.st111{clip-path:url(#SVGID_12_);}
	.st112{display:inline;fill:#66B84C;}
	.st113{display:inline;fill:#6B3F3A;}
	.st114{display:inline;fill:#B7B7B7;}
	.st115{display:inline;fill:#ADADAD;}
	.st116{display:inline;fill:#BFBFBF;}
	.st117{display:inline;fill:#F2F2F2;}
	.st118{display:inline;fill:#C65454;}
	.st119{display:inline;opacity:0.8;fill:#A5A5A5;}
	.st120{display:inline;fill:#71857C;}
	.st121{display:inline;fill:#FAF9FE;}
	.st122{display:inline;opacity:0.8;fill:#DCFCFF;}
	.st123{display:inline;fill:#324450;}
	.st124{display:inline;opacity:0.8;fill:#FFFFFF;}
	.st125{display:inline;fill:#2C3E48;}
	.st126{display:inline;fill:#2D6F7A;}
	.st127{display:inline;fill:#4C4C4C;}
	.st128{display:inline;fill:#232323;}
	.st129{display:inline;fill:#6D6D6D;}
	.st130{clip-path:url(#SVGID_14_);}
</style>
<g id="all">
</g>
<g id="buildings">
</g>
<g id="sky">
</g>
<g id="assets">
	<g id="jeepney_3_">
		<ellipse class="st70" cx="411.6" cy="472.2" rx="402.1" ry="9.4"/>
		
			<rect x="794.3" y="246.4" transform="matrix(0.9483 -0.3172 0.3172 0.9483 -51.2072 267.8063)" class="st71" width="5" height="89.5"/>
		
			<rect x="804.3" y="244.1" transform="matrix(0.9483 -0.3172 0.3172 0.9483 -49.9605 270.8682)" class="st71" width="5" height="89.5"/>
		
			<rect x="785.3" y="256" transform="matrix(0.9483 -0.3172 0.3172 0.9483 -54.7191 265.4534)" class="st71" width="5" height="89.5"/>
		<path class="st72" d="M253,299.7c0,0,69.6-2.9,102.5-55.5s73.3-73.5,85.3-73.8c15.6-0.3,334.9,0,334.9,0v140.4H252L253,299.7z"/>
		<path class="st71" d="M794.2,49.1c0,0,6.1,1.5,6.6,14c0.4,12.5,12.2,169.2,11.4,170.5c-0.2,2.6-4.2,16-14.7,14.7l-0.1-4.1
			c0-0.1,8.8-0.6,8.3-13.1s-5-141.9-10.3-167.8c0,0,1.7-8.1-5.8-11.9C782,47.5,794.2,49.1,794.2,49.1z"/>
		<g class="st73">
			<path class="st74" d="M496.5,138.8c2.2-2,3.5-4.8,3.5-8V97.9c0-6-4.9-11-11-11h-29.5c-6,0-11,4.9-11,11v32.9c0,3.2,1.4,6,3.5,8
				c-5.5,0.6-9.7,5.2-9.7,10.8v92.4c0,6,4.9,11,11,11h42c6,0,11-4.9,11-11v-92.4C506.3,144,502,139.4,496.5,138.8z"/>
			<path class="st74" d="M625.6,153.3c2.2-2,3.5-4.8,3.5-8v-32.9c0-6-4.9-11-11-11h-29.5c-6,0-11,4.9-11,11v32.9c0,3.2,1.4,6,3.5,8
				c-5.5,0.6-9.7,5.2-9.7,10.8v92.4c0,6,4.9,11,11,11h42c6,0,11-4.9,11-11v-92.4C635.4,158.5,631.1,153.9,625.6,153.3z"/>
			<path class="st74" d="M694,140.7c2.2-2,3.5-4.8,3.5-8V99.8c0-6-4.9-11-11-11H657c-6,0-11,4.9-11,11v32.9c0,3.2,1.4,6,3.5,8
				c-5.5,0.6-9.7,5.2-9.7,10.8V244c0,6,4.9,11,11,11h42c6,0,11-4.9,11-11v-92.4C703.7,146,699.4,141.4,694,140.7z"/>
			<path class="st74" d="M761.4,181.2c2.2-2,3.5-4.8,3.5-8v-32.9c0-6-4.9-11-11-11h-29.5c-6,0-11,4.9-11,11v32.9c0,3.2,1.4,6,3.5,8
				c-5.5,0.6-9.7,5.2-9.7,10.8v92.4c0,6,4.9,11,11,11h42c6,0,11-4.9,11-11V192C771.2,186.4,766.9,181.8,761.4,181.2z"/>
			<path class="st74" d="M412.2,173.3c2.3-2.1,3.7-5.1,3.7-8.4v-34.7c0-6.3-5.2-11.5-11.5-11.5h-31.1c-6.3,0-11.5,5.2-11.5,11.5
				v34.7c0,3.3,1.5,6.3,3.7,8.4c-5.7,0.6-10.3,5.5-10.3,11.4V282c0,6.3,5.2,11.5,11.5,11.5H411c6.3,0,11.5-5.2,11.5-11.5v-97.3
				C422.5,178.8,418,174,412.2,173.3z"/>
		</g>
		<path class="st71" d="M307,252.8L259.2,205c-2.1-2.1-5.5-2.1-7.5,0c-2.1,2.1-2.1,5.5,0,7.5l19.7,19.7c-0.9,0.2-1.7,0.6-2.3,1.3
			l-22.7,22.7c-2.1,2.1-2.1,5.5,0,7.5c2.1,2.1,5.5,2.1,7.5,0l22.7-22.7c0.7-0.7,1-1.5,1.3-2.3l21.6,21.6c2.1,2.1,5.5,2.1,7.5,0
			C309.1,258.3,309.1,254.9,307,252.8z"/>
		<path class="st48" d="M518.5,366.1"/>
		<g>
			<path class="st75" d="M679.3,271.5h-60.1c-1,0-1.9-0.9-1.9-1.9V159.1c0-1,0.9-1.9,1.9-1.9h60.1c1,0,1.9,0.9,1.9,1.9v110.6
				C681.2,270.7,680.3,271.5,679.3,271.5z"/>
			<path d="M675.1,187.9h-49.9c-1.9,0-3.5-1.6-3.5-3.5V97.6c0-1.9,1.6-3.5,3.5-3.5h49.9c1.9,0,3.5,1.6,3.5,3.5v86.9
				C678.6,186.4,677.1,187.9,675.1,187.9z"/>
		</g>
		<g>
			<path class="st76" d="M434,224.7L434,224.7c-2.6-3,64.7-65,64.7-65c2.7-2.3,7-1.7,9.5,1.2v0c2.6,3,2.5,7.3-0.2,9.6
				C508,170.6,436.6,227.7,434,224.7z"/>
			<path class="st76" d="M620,234.4L620,234.4c-3,2.6-65-64.7-65-64.7c-2.3-2.7-1.7-7,1.2-9.5l0,0c3-2.6,7.3-2.5,9.6,0.2
				C565.9,160.4,623,231.8,620,234.4z"/>
			<path class="st77" d="M563,261.4h-60.1c-1,0-1.9-0.9-1.9-1.9V148.9c0-1,0.9-1.9,1.9-1.9H563c1,0,1.9,0.9,1.9,1.9v110.6
				C564.9,260.5,564,261.4,563,261.4z"/>
			<path d="M534.6,197.9h-4.2c-14.5,0-26.3-90.5-26.3-90.5c0-14.5,11.8-26.3,26.3-26.3h4.2c14.5,0,26.3,11.8,26.3,26.3
				C560.9,107.4,549,197.9,534.6,197.9z"/>
		</g>
		<g>
			<path class="st78" d="M283.1,230.5L283.1,230.5c-1.1-3.8,85.7-32.5,85.7-32.5c3.4-1,7.1,1.3,8.2,5.1v0c1.1,3.8-0.8,7.7-4.2,8.7
				C372.8,211.7,284.2,234.3,283.1,230.5z"/>
			<path class="st79" d="M405.3,295.4h-60.1c-1,0-1.9-0.9-1.9-1.9V183c0-1,0.9-1.9,1.9-1.9h60.1c1,0,1.9,0.9,1.9,1.9v110.6
				C407.2,294.6,406.4,295.4,405.3,295.4z"/>
			<path class="st76" d="M397.3,177.8H354c-1.1,0-1.9-0.9-1.9-1.9V121c0-1.1,0.9-1.9,1.9-1.9h43.3c1.1,0,1.9,0.9,1.9,1.9v54.9
				C399.2,177,398.4,177.8,397.3,177.8z"/>
			<path d="M352.1,130.2c0-6.2,5-11.2,11.2-11.2H388c6.2,0,11.2,5,11.2,11.2v36.4C401,166.6,352.1,130.2,352.1,130.2z"/>
			<path class="st80" d="M374.9,106.9c-12.8,0-23.5,8.2-26.2,19.3h-9.1c-1.5,0-2.7,1.2-2.7,2.7c0,1.5,1.2,2.7,2.7,2.7h8.4
				c1.1,0,4,0,7.9,0c14.1,0,41.8,0,45.8,0C401.7,117.9,389.7,106.9,374.9,106.9z"/>
			<path class="st76" d="M286.5,240.1L286.5,240.1c-1.6-3.6,80.1-44.7,80.1-44.7c3.2-1.5,7.2,0.2,8.8,3.8v0c1.6,3.6,0.4,7.7-2.8,9.2
				C372.6,208.4,288.2,243.7,286.5,240.1z"/>
		</g>
		<g>
			<path class="st81" d="M765.3,261.4h-60.1c-1,0-1.9-0.9-1.9-1.9V148.9c0-1,0.9-1.9,1.9-1.9h60.1c1,0,1.9,0.9,1.9,1.9v110.6
				C767.2,260.5,766.3,261.4,765.3,261.4z"/>
			<path class="st76" d="M756.3,145.3H713c-1.1,0-1.9-0.9-1.9-1.9V88.5c0-1.1,0.9-1.9,1.9-1.9h43.3c1.1,0,1.9,0.9,1.9,1.9v54.9
				C758.3,144.5,757.4,145.3,756.3,145.3z"/>
			<path d="M760.4,144.2h-49.9c-1.9,0-3.5-1.6-3.5-3.5V85.3c0-1.9,1.6-3.5,3.5-3.5h49.9c1.9,0,3.5,1.6,3.5,3.5v55.4
				C763.8,142.6,762.3,144.2,760.4,144.2z"/>
			<path class="st76" d="M640.6,221.1L640.6,221.1c-2.6-3,64.7-65,64.7-65c2.7-2.3,7-1.7,9.5,1.2v0c2.6,3,2.5,7.3-0.2,9.6
				C714.6,167,643.2,224.1,640.6,221.1z"/>
		</g>
		<path class="st80" d="M241.9,90.5h-9.5c-0.4,0-0.7-0.3-0.7-0.7V5.9c0-0.4,0.3-0.7,0.7-0.7h9.5c0.4,0,0.7,0.3,0.7,0.7v83.9
			C242.6,90.2,242.3,90.5,241.9,90.5z"/>
		<g>
			<g>
				<g>
					<path class="st82" d="M786.3,216.4H564.1c-61.4-0.4-128.5-0.4-136.9,0.8l-81.6,68.9c-47,40.5-93.9-4.3-93.9-4.3v-64.5H8.5V281
						h211.7l65.8,82.2h383.2V363h117.1V216.4z"/>
					<g id="XMLID_43_">
						<g>
							<rect x="784.9" y="325.1" class="st82" width="39.1" height="37.8"/>
							<polygon class="st82" points="801.6,216.7 801.6,254.5 785.5,254.5 785.5,225.7 785.5,216.7 							"/>
							<path class="st82" d="M781.1,37.8c6.1,0,11.1,5,11.1,11.1c0,5.1-6.6,10.7-6.6,10.7v157.1v9.1h-9.4V59.9H610.7v165.8h-9.4
								V59.9H435.9v165.5h-9.4V59.9H250.3V219l-11.8,0.6l4.9-160.1c0,0-1.3-21.7,4.7-21.7H781.1z"/>
						</g>
					</g>
				</g>
				<g>
					<g>
						<path class="st83" d="M759.2,363.4c-26.6,0-159.1,0-189.3,0c0-43.4,42.4-78.6,94.7-78.6S759.2,320,759.2,363.4z"/>
						<path class="st84" d="M750.2,363.4c-24,0-144.1,0-171.4,0c0-38.2,38.4-69.1,85.7-69.1S750.2,325.2,750.2,363.4z"/>
					</g>
					<g>
						<polygon class="st71" points="288.7,363 9.7,363 9.7,297.4 225.6,297.4 						"/>
						<path class="st83" d="M308.1,364.9l-83.8-85.7c0,0-0.1-0.1-0.1,0H1.4v18.7h223.1l65.5,67H308.1z"/>
					</g>
				</g>
				<path class="st85" d="M8.5,270.8c-4.7,0-8.5-9-8.5-20.1c0-11.1,3.8-20.1,8.5-20.1C8.5,234.7,8.5,267.6,8.5,270.8z"/>
			</g>
			<g>
				<g>
					<circle class="st48" cx="147.2" cy="390.3" r="81.5"/>
					<circle cx="149" cy="390.4" r="67.4"/>
					<circle class="st48" cx="149" cy="390.4" r="24.5"/>
				</g>
				<g>
					<circle class="st48" cx="662.3" cy="390.3" r="81.5"/>
					<circle cx="664.1" cy="390.4" r="67.4"/>
					<circle class="st48" cx="664.1" cy="390.4" r="24.5"/>
				</g>
			</g>
		</g>
		<g>
			<path class="st71" d="M342.1,44h-5.7c-0.2,0-0.4-0.2-0.4-0.4V1.1c0-0.2,0.2-0.4,0.4-0.4h5.7c0.2,0,0.4,0.2,0.4,0.4v42.5
				C342.5,43.9,342.3,44,342.1,44z"/>
			<path class="st71" d="M522.9,44h-5.7c-0.2,0-0.4-0.2-0.4-0.4v-38c0-0.2,0.2-0.4,0.4-0.4h5.7c0.2,0,0.4,0.2,0.4,0.4v38
				C523.3,43.9,523.2,44,522.9,44z"/>
			<path class="st71" d="M703.8,44H698c-0.2,0-0.4-0.2-0.4-0.4V7.9c0-0.2,0.2-0.4,0.4-0.4h5.7c0.2,0,0.4,0.2,0.4,0.4v35.7
				C704.2,43.9,704,44,703.8,44z"/>
			<path class="st71" d="M334.1,6.1l0.1-5.7c0-0.2,0.2-0.4,0.4-0.4l372.3,7.2c0.2,0,0.4,0.2,0.4,0.4l-0.1,5.7c0,0.2-0.2,0.4-0.4,0.4
				L334.5,6.5C334.3,6.5,334.1,6.4,334.1,6.1z"/>
		</g>
		<g>
			<path class="st80" d="M29.5,189.9c0.2,0.4,0.2,1.8,0.2,1.8l0,1.1c0,0,1.5-0.6,1.4-1.4c0,0-0.1-0.4-0.3-0.5
				c-0.2-0.1-0.2-0.2-0.2-0.3c0-0.1-0.1-0.8-0.1-0.9c0-0.1,0.1-0.6,0.1-0.6c0,0,0.2-0.1,0.4-0.2c0,0.1,0,0.2,0,0.4
				c0.1,0.6,0.4,1,0.4,1s1.2-0.7,1.2-1c0-0.3,0-0.4,0-0.4l-0.4-0.2c0,0-0.1-0.1,0-0.3c0,0,0.1-0.1,0.2-0.3c0.2-0.1,0.4-0.2,0.4-0.2
				s0.6,1,0.9,1.7c0.4,0.7,1.1,2.2,1.4,2.6c0.3,0.4,0.5,0.3,1.1,0.3c0,0,1.6,3.9,2.1,4.8c0.6,1,3,3.6,4.4,4.5c0,0,0.3,0.1-0.1,0.5
				c-0.4,0.4-0.8,1.7-0.8,2.2c0,0.6,0.4,0.7,0.6,1.6c0.2,0.9,0.6,2,0.9,2.6c0.3,0.5,0.4,0.7,0.5,1.2c0.1,0.5,0.2,2.3,0,2.8
				c-0.2,0.5-0.8,1.3-1.3,1.9c-0.4,0.5-0.6,0.7-0.9,0.9c-0.3,0.3-0.2,0.1-0.2,0.2l-0.5,0.9c0,0,1.1,0.3,1.7,0c0,0,0.1-0.2,0.1-0.4
				c-0.1-0.3-0.2-0.3,0-0.4c0.2-0.1,0.3,0,0.6-0.4c0.3-0.4,0.5-0.7,1-1.6c0.5-0.9,1.1-1.8,1.4-2.1c0.3-0.3,0.7-0.8,0.4-1.3
				c-0.3-0.6-0.4-1-0.5-1.5c-0.1-0.5-0.5-0.7-0.2-1.2c0.2-0.5,0.3-0.6,0.3-0.6s0.7,1.2,1,1.6c0.3,0.5,0.6,1.2,0.7,1.6
				c0.1,0.4,0.4,0.4,0.2,1.1c-0.2,0.6-0.5,1.9-0.8,2.5c-0.3,0.6-1.3,2.3-1.2,2.4c0.1,0.1-0.5,0.8-0.5,0.8s1.2,0.3,1.6-0.1l0.1-0.6
				c0,0-0.3-0.1-0.1-0.3c0.3-0.3,0.3-0.2,0.5-0.4c0.3-0.2,0.4-0.5,0.4-0.9c0-0.4-0.2,0,0.2-0.9c0.4-0.9,0.6-1.7,1.1-2.4
				c0.5-0.7,0.7-1.3,0.3-1.6c-0.4-0.3-0.9-1.3-0.9-1.9c0-0.6,0-1.1,0.1-1.2c0.1-0.1,1.7-1.3,2.1-2.4c-0.2,1.1-0.3,3.6,1,4.3
				c0,0,1.9,1.3,3.1,1.6c1.2,0.2,1.9,0.5,2.1,1c0,0,0.2-0.7-0.6-1c-0.8-0.3,0.1,0,0.1,0s4.6-1.7,2.1-3.4c0,0,0.9,1.2-0.8,1.5
				c0,0,0,0-0.1,0c-1.8,0.3-1.8-0.5-2.4-1.4c-0.7-0.9-2.3-3.6-3.1-4.1c-0.8-0.5-1-0.5-1-0.5s-0.2-1.6-0.6-2.6
				c-0.4-1-1.4-2.7-2.4-3.7c-1-1-2.2-2.8-2.5-3.5c-0.3-0.7-0.5-2.5-0.5-2.8c0,0,0.2,0.2,0.2,0.2c0,0.1,0.1,0.3,0.1,0.2
				c0-0.1,0-0.2,0-0.1c0,0.2,0.1,0.3,0.1,0.1c0-0.2,0-0.3,0.1-0.2c0.1,0.1,0.3,0.1,0.2,0c0-0.1-0.1-0.3,0-0.2c0.1,0,0.1,0.1,0.1-0.1
				c0-0.2-0.1-0.4,0.1-0.4c0.2,0.1,0-0.2,0-0.2s0.1-0.1,0.2-0.1c0.1,0,0.1,0.1,0-0.1c-0.1-0.2,0-0.1,0-0.2c0-0.2,0-0.6,0.2-0.6
				c0.2,0,0.2,0,0.1-0.1c-0.1-0.1-0.4-0.3-0.2-0.2c0.2,0.1,0.3,0.1,0.1,0c-0.1-0.1-0.2-0.5-0.1-0.4c0.1,0.1,0.3,0.1,0.2,0
				c-0.1-0.1-0.2-0.5-0.1-0.5c0.1,0,0.2,0.3,0.1,0c-0.1-0.2-0.2-0.5,0-0.5c0.1,0,0.4,0.3,0.1,0c-0.2-0.3-0.3-0.7-0.2-0.5
				c0.1,0.1,0.3,0.3,0.2,0.1c-0.1-0.2-0.2-0.5-0.1-0.4c0.1,0.1,0.2,0.2,0.1,0c-0.1-0.2,0.2-0.1,0.1-0.3c-0.1-0.2-0.2-0.3-0.1-0.2
				c0.1,0.1,0.2,0.1,0.1-0.1c-0.1-0.3-0.2-0.6-0.1-0.4c0.2,0.2,0.2,0.2,0.1,0c-0.1-0.2,0-0.3,0.1-0.3c0,0,0-0.2,0-0.3
				c0-0.1,0-0.2,0-0.3c-0.1-0.2-0.3-0.3-0.1-0.3c0.2,0,0.1,0,0.1-0.2c0-0.1-0.3-0.5-0.1-0.4c0.2,0.1,0.1,0,0.1,0
				c0-0.1,0.2-0.2,0.2-0.1c0,0-0.2-0.4-0.2-0.4s0.2,0.1,0-0.1c-0.2-0.2-0.2-0.3-0.1-0.3c0.1,0,0.1,0,0-0.3c-0.1-0.2-0.1-0.3-0.1-0.3
				c0,0-0.1-0.1-0.1-0.1c0-0.2-0.3-0.5-0.1-0.4c0.2,0.1,0.2,0,0-0.1c-0.2-0.1-0.3-0.8-0.1-0.5c0.2,0.2,0.3,0.2,0.2,0
				c-0.1-0.2-0.4-0.7-0.3-0.6c0.1,0.1,0.4,0.3,0.3,0.1c-0.1-0.2-0.3-0.5-0.2-0.5c0.1,0,0,0-0.1-0.2c-0.1-0.1-0.2-0.3-0.2-0.3
				s-0.8-2.1-2.6-1.4c0,0,0.1-0.2,0.2-0.3c0,0-0.5,0.2-1-0.1c-0.5-0.2-0.6-0.7-1.6-0.3c-1,0.5-1.6,0.7-2,0.8
				c-0.4,0.1-4.4,0.9-4.7,2.6c0,0-0.3,0.8,0.4,1.1c0,0,0.9,0.8,1.1,0.1c0,0,0.2,0,0.8,0c0.6,0,2.8,0.8,3.3,0.2c0,0,0,3.1-1.8,4.3
				l-1.3,0.7c0,0-0.9-1.2-0.9-1.2c0,0-0.6-0.2-1-0.2c-0.4,0-1.5,1-1.9,1.3c-0.1,0.1-0.2,0.1-0.3,0.3c-0.3-0.1-0.5-0.1-0.7,0
				c-0.6,0.3-1.1,1.4-1.2,1.5c-0.1,0.1-1.1,1.2-1.1,1.3C29.5,189.4,29.2,189.6,29.5,189.9z M33.5,187c0.2-0.2,0.3-0.3,0.5-0.4
				c0.6-0.3,1.1-0.4,1.2-0.2c0,0,0.5,1.1,0.5,1.4c0,0.3-0.1,0.8-0.1,0.9c0,0.2-1.6-1.4-1.6-1.4S33.8,187.2,33.5,187z"/>
			<path class="st80" d="M46.4,181.1C46.5,181.2,46.4,181.2,46.4,181.1C46.3,181.1,46.3,181,46.4,181.1z"/>
		</g>
	</g>
</g>
</svg>
