<svg id="Layer_1" data-name="Layer 1" xmlns="http://www.w3.org/2000/svg" viewBox="0 0 1404 678"><defs><style>.cls-1{fill:#3b6bc1;}</style></defs><title>loser</title><path class="cls-1" d="M300.66,487.13S271,472,243.87,511.14c0,0-1.11,24.16,18.26,15.93S276.44,479.31,300.66,487.13Z"/><path class="cls-1" d="M274.65,337.14S254,291.58,201.19,321.8c0,0-5.71,6.6,3.71,17.06,0,0,8.41,5.64,13.74,3.63C218.65,342.5,263.57,323.55,274.65,337.14Z"/><path class="cls-1" d="M371.23,206.89s9.37-42.39-42.58-57.68c0,0-21.08,5.82-7.6,22.06C321.05,171.28,360,187.33,371.23,206.89Z"/><path class="cls-1" d="M1056.27,218.15s-3-54,38.5-57c0,0,23,3,7,17.5C1101.77,178.65,1070.77,187.15,1056.27,218.15Z"/><path class="cls-1" d="M1097.27,330.64s27.5-48,57-26.5c0,0,16,9-3.5,16C1150.77,320.14,1125.77,314.64,1097.27,330.64Z"/><path class="cls-1" d="M1140,460.84s49-11.1,61.38,15.59c0,0,9,15.52-3.32,22.88,0,0-10.66-1.5-23.67-17C1174.37,482.28,1167.94,469.37,1140,460.84Z"/></svg>