<svg id="Layer_1" data-name="Layer 1" xmlns="http://www.w3.org/2000/svg" viewBox="0 0 1277.78 83.86"><defs><style>.cls-1{fill:#d68709;}.cls-2{fill:#c67705;}.cls-3{fill:#f8a300;}</style></defs><title>tie-rope</title><path class="cls-1" d="M656.49,17.49S649.79,12,634,26.62c0,0-15.22,11-17.66,15.83,0,0-6.7,15.22-.61,20.7,0,0,10.35-4.26,23.14-15.83,0,0,9.13-17.66,20.09-12.79C658.92,34.54,665,29.06,656.49,17.49Z"/><path class="cls-2" d="M1277.78,0s-378,36.66-383.31,37.37c-118,15.79-237.77-5.45-237.77-5.45-14.68-3.18-19.79,15-19.79,15,35.9,28.45,271.18,7.72,271.18,7.72l369.39-37.84Z"/><path class="cls-1" d="M597,46.36S564.74,70.66,346.14,54L0,23V43.65L346.14,74.19s235.65,16,271-13.22C617.11,61,611.63,42.88,597,46.36Z"/><path class="cls-3" d="M621.17,37s-2.44,12.18-5.48,26.18c0,0,6.09,10.35,13.4,3a124.31,124.31,0,0,0,10.35-14l-0.61-4.87L654.66,54s-3,23.14-32.27,29.84c0,0-28.62-1.22-28.62-46.28,0,0,14-25.57,38.36-8.52Z"/></svg>