<svg id="Layer_1" data-name="Layer 1" xmlns="http://www.w3.org/2000/svg" viewBox="0 0 1080.5 502.13"><defs><style>.cls-1{fill:#f6e042;}.cls-2{fill:#cff2a1;}.cls-3{fill:#59c1fa;}.cls-4{fill:#f3ac2f;}</style></defs><title>win</title><g id="fireworks"><rect class="cls-1" x="951.21" y="35.4" width="1.36" height="14.61" rx="0.68" ry="0.68"/><rect class="cls-1" x="951.21" y="73.28" width="1.36" height="14.61" rx="0.68" ry="0.68"/><rect class="cls-1" x="964.6" y="40.94" width="1.36" height="14.61" rx="0.68" ry="0.68" transform="translate(316.85 -668.43) rotate(45)"/><rect class="cls-1" x="937.81" y="67.74" width="1.36" height="14.61" rx="0.68" ry="0.68" transform="translate(327.94 -641.64) rotate(45)"/><rect class="cls-1" x="970.15" y="54.34" width="1.36" height="14.61" rx="0.68" ry="0.68" transform="translate(1032.48 -909.19) rotate(90)"/><rect class="cls-1" x="932.26" y="54.34" width="1.36" height="14.61" rx="0.68" ry="0.68" transform="translate(994.59 -871.3) rotate(90)"/><rect class="cls-1" x="937.81" y="40.94" width="1.36" height="14.61" rx="0.68" ry="0.68" transform="translate(240.76 677.75) rotate(-45)"/><rect class="cls-1" x="964.6" y="67.74" width="1.36" height="14.61" rx="0.68" ry="0.68" transform="translate(229.66 704.54) rotate(-45)"/><rect class="cls-2" x="1053.57" y="206.45" width="1.36" height="14.61" rx="0.68" ry="0.68"/><rect class="cls-2" x="1053.57" y="244.34" width="1.36" height="14.61" rx="0.68" ry="0.68"/><rect class="cls-2" x="1066.97" y="212" width="1.36" height="14.61" rx="0.68" ry="0.68" transform="translate(467.78 -690.71) rotate(45)"/><rect class="cls-2" x="1040.17" y="238.79" width="1.36" height="14.61" rx="0.68" ry="0.68" transform="translate(478.88 -663.92) rotate(45)"/><rect class="cls-2" x="1072.51" y="225.4" width="1.36" height="14.61" rx="0.68" ry="0.68" transform="translate(1305.9 -840.49) rotate(90)"/><rect class="cls-2" x="1034.63" y="225.4" width="1.36" height="14.61" rx="0.68" ry="0.68" transform="translate(1268.01 -802.6) rotate(90)"/><rect class="cls-2" x="1040.17" y="212" width="1.36" height="14.61" rx="0.68" ry="0.68" transform="translate(149.79 800.23) rotate(-45)"/><rect class="cls-2" x="1066.97" y="238.79" width="1.36" height="14.61" rx="0.68" ry="0.68" transform="translate(138.69 827.02) rotate(-45)"/><rect class="cls-3" x="29.25" y="130.08" width="1.36" height="14.61" rx="0.68" ry="0.68"/><rect class="cls-3" x="29.25" y="167.96" width="1.36" height="14.61" rx="0.68" ry="0.68"/><rect class="cls-3" x="42.65" y="135.62" width="1.36" height="14.61" rx="0.68" ry="0.68" transform="translate(113.76 11.23) rotate(45)"/><rect class="cls-3" x="15.86" y="162.41" width="1.36" height="14.61" rx="0.68" ry="0.68" transform="translate(124.85 38.02) rotate(45)"/><rect class="cls-3" x="48.2" y="149.02" width="1.36" height="14.61" rx="0.68" ry="0.68" transform="translate(205.2 107.45) rotate(90)"/><rect class="cls-3" x="10.31" y="149.02" width="1.36" height="14.61" rx="0.68" ry="0.68" transform="translate(167.31 145.34) rotate(90)"/><rect class="cls-3" x="15.86" y="135.62" width="1.36" height="14.61" rx="0.68" ry="0.68" transform="translate(-96.22 53.56) rotate(-45)"/><rect class="cls-3" x="42.65" y="162.41" width="1.36" height="14.61" rx="0.68" ry="0.68" transform="translate(-107.32 80.35) rotate(-45)"/><rect class="cls-1" x="660.17" width="1.36" height="14.61" rx="0.68" ry="0.68"/><rect class="cls-1" x="660.17" y="37.89" width="1.36" height="14.61" rx="0.68" ry="0.68"/><rect class="cls-1" x="673.57" y="5.55" width="1.36" height="14.61" rx="0.68" ry="0.68" transform="translate(206.57 -473) rotate(45)"/><rect class="cls-1" x="646.78" y="32.34" width="1.36" height="14.61" rx="0.68" ry="0.68" transform="translate(217.67 -446.21) rotate(45)"/><rect class="cls-1" x="679.12" y="18.94" width="1.36" height="14.61" rx="0.68" ry="0.68" transform="translate(706.05 -653.55) rotate(90)"/><rect class="cls-1" x="641.23" y="18.94" width="1.36" height="14.61" rx="0.68" ry="0.68" transform="translate(668.16 -615.66) rotate(90)"/><rect class="cls-1" x="646.78" y="5.55" width="1.36" height="14.61" rx="0.68" ry="0.68" transform="translate(180.54 461.58) rotate(-45)"/><rect class="cls-1" x="673.57" y="32.34" width="1.36" height="14.61" rx="0.68" ry="0.68" transform="translate(169.45 488.38) rotate(-45)"/><rect class="cls-1" x="171.57" y="300.45" width="1.36" height="14.61" rx="0.68" ry="0.68"/><rect class="cls-1" x="171.57" y="338.34" width="1.36" height="14.61" rx="0.68" ry="0.68"/><rect class="cls-1" x="184.97" y="306" width="1.36" height="14.61" rx="0.68" ry="0.68" transform="translate(275.92 -39.51) rotate(45)"/><rect class="cls-1" x="158.17" y="332.79" width="1.36" height="14.61" rx="0.68" ry="0.68" transform="translate(287.01 -12.71) rotate(45)"/><rect class="cls-1" x="190.51" y="319.4" width="1.36" height="14.61" rx="0.68" ry="0.68" transform="translate(517.9 135.51) rotate(90)"/><rect class="cls-1" x="152.63" y="319.4" width="1.36" height="14.61" rx="0.68" ry="0.68" transform="translate(480.01 173.4) rotate(90)"/><rect class="cls-1" x="158.17" y="306" width="1.36" height="14.61" rx="0.68" ry="0.68" transform="translate(-175.01 204.09) rotate(-45)"/><rect class="cls-1" x="184.97" y="332.79" width="1.36" height="14.61" rx="0.68" ry="0.68" transform="translate(-186.11 230.88) rotate(-45)"/><rect class="cls-4" x="179.93" y="17.4" width="1.36" height="14.61" rx="0.68" ry="0.68"/><rect class="cls-4" x="179.93" y="55.28" width="1.36" height="14.61" rx="0.68" ry="0.68"/><rect class="cls-4" x="193.33" y="22.94" width="1.36" height="14.61" rx="0.68" ry="0.68" transform="translate(78.21 -128.32) rotate(45)"/><rect class="cls-4" x="166.54" y="49.74" width="1.36" height="14.61" rx="0.68" ry="0.68" transform="translate(89.31 -101.53) rotate(45)"/><rect class="cls-4" x="198.88" y="36.34" width="1.36" height="14.61" rx="0.68" ry="0.68" transform="translate(243.2 -155.91) rotate(90)"/><rect class="cls-4" x="160.99" y="36.34" width="1.36" height="14.61" rx="0.68" ry="0.68" transform="translate(205.31 -118.02) rotate(90)"/><rect class="cls-4" x="166.54" y="22.94" width="1.36" height="14.61" rx="0.68" ry="0.68" transform="translate(27.59 127.1) rotate(-45)"/><rect class="cls-4" x="193.33" y="49.74" width="1.36" height="14.61" rx="0.68" ry="0.68" transform="translate(16.49 153.89) rotate(-45)"/><rect class="cls-3" x="905.34" y="293.17" width="1.36" height="14.61" rx="0.68" ry="0.68"/><rect class="cls-3" x="905.34" y="331.05" width="1.36" height="14.61" rx="0.68" ry="0.68"/><rect class="cls-3" x="918.74" y="298.71" width="1.36" height="14.61" rx="0.68" ry="0.68" transform="translate(485.69 -560.5) rotate(45)"/><rect class="cls-3" x="891.95" y="325.51" width="1.36" height="14.61" rx="0.68" ry="0.68" transform="translate(496.78 -533.71) rotate(45)"/><rect class="cls-3" x="924.29" y="312.11" width="1.36" height="14.61" rx="0.68" ry="0.68" transform="translate(1244.38 -605.55) rotate(90)"/><rect class="cls-3" x="886.4" y="312.11" width="1.36" height="14.61" rx="0.68" ry="0.68" transform="translate(1206.49 -567.66) rotate(90)"/><rect class="cls-3" x="891.95" y="298.71" width="1.36" height="14.61" rx="0.68" ry="0.68" transform="translate(45.06 720.81) rotate(-45)"/><rect class="cls-3" x="918.74" y="325.51" width="1.36" height="14.61" rx="0.68" ry="0.68" transform="translate(33.96 747.6) rotate(-45)"/><rect class="cls-4" x="1033.34" y="449.63" width="1.36" height="14.61" rx="0.68" ry="0.68"/><rect class="cls-4" x="1033.34" y="487.51" width="1.36" height="14.61" rx="0.68" ry="0.68"/><rect class="cls-4" x="1046.74" y="455.17" width="1.36" height="14.61" rx="0.68" ry="0.68" transform="translate(633.8 -605.18) rotate(45)"/><rect class="cls-4" x="1019.95" y="481.96" width="1.36" height="14.61" rx="0.68" ry="0.68" transform="translate(644.9 -578.39) rotate(45)"/><rect class="cls-4" x="1052.29" y="468.57" width="1.36" height="14.61" rx="0.68" ry="0.68" transform="translate(1528.84 -577.09) rotate(90)"/><rect class="cls-4" x="1014.4" y="468.57" width="1.36" height="14.61" rx="0.68" ry="0.68" transform="translate(1490.95 -539.2) rotate(90)"/><rect class="cls-4" x="1019.95" y="455.17" width="1.36" height="14.61" rx="0.68" ry="0.68" transform="translate(-28.09 857.15) rotate(-45)"/><rect class="cls-4" x="1046.74" y="481.96" width="1.36" height="14.61" rx="0.68" ry="0.68" transform="translate(-39.19 883.94) rotate(-45)"/><rect class="cls-2" x="25.57" y="417.03" width="1.36" height="14.61" rx="0.68" ry="0.68"/><rect class="cls-2" x="25.57" y="454.92" width="1.36" height="14.61" rx="0.68" ry="0.68"/><rect class="cls-2" x="38.97" y="422.58" width="1.36" height="14.61" rx="0.68" ry="0.68" transform="translate(315.59 97.88) rotate(45)"/><rect class="cls-2" x="12.17" y="449.37" width="1.36" height="14.61" rx="0.68" ry="0.68" transform="translate(326.69 124.67) rotate(45)"/><rect class="cls-2" x="44.51" y="435.98" width="1.36" height="14.61" rx="0.68" ry="0.68" transform="translate(488.48 398.09) rotate(90)"/><rect class="cls-2" x="6.63" y="435.98" width="1.36" height="14.61" rx="0.68" ry="0.68" transform="translate(450.59 435.98) rotate(90)"/><rect class="cls-2" x="12.17" y="422.58" width="1.36" height="14.61" rx="0.68" ry="0.68" transform="translate(-300.21 135) rotate(-45)"/><rect class="cls-2" x="38.97" y="449.37" width="1.36" height="14.61" rx="0.68" ry="0.68" transform="translate(-311.31 161.79) rotate(-45)"/></g><g id="fireworks-2" data-name="fireworks"><rect class="cls-1" x="951.21" y="35.4" width="1.36" height="14.61" rx="0.68" ry="0.68"/><rect class="cls-1" x="951.21" y="73.28" width="1.36" height="14.61" rx="0.68" ry="0.68"/><rect class="cls-1" x="964.6" y="40.94" width="1.36" height="14.61" rx="0.68" ry="0.68" transform="translate(316.85 -668.43) rotate(45)"/><rect class="cls-1" x="937.81" y="67.74" width="1.36" height="14.61" rx="0.68" ry="0.68" transform="translate(327.94 -641.64) rotate(45)"/><rect class="cls-1" x="970.15" y="54.34" width="1.36" height="14.61" rx="0.68" ry="0.68" transform="translate(1032.48 -909.19) rotate(90)"/><rect class="cls-1" x="932.26" y="54.34" width="1.36" height="14.61" rx="0.68" ry="0.68" transform="translate(994.59 -871.3) rotate(90)"/><rect class="cls-1" x="937.81" y="40.94" width="1.36" height="14.61" rx="0.68" ry="0.68" transform="translate(240.76 677.75) rotate(-45)"/><rect class="cls-1" x="964.6" y="67.74" width="1.36" height="14.61" rx="0.68" ry="0.68" transform="translate(229.66 704.54) rotate(-45)"/><rect class="cls-2" x="1053.57" y="206.45" width="1.36" height="14.61" rx="0.68" ry="0.68"/><rect class="cls-2" x="1053.57" y="244.34" width="1.36" height="14.61" rx="0.68" ry="0.68"/><rect class="cls-2" x="1066.97" y="212" width="1.36" height="14.61" rx="0.68" ry="0.68" transform="translate(467.78 -690.71) rotate(45)"/><rect class="cls-2" x="1040.17" y="238.79" width="1.36" height="14.61" rx="0.68" ry="0.68" transform="translate(478.88 -663.92) rotate(45)"/><rect class="cls-2" x="1072.51" y="225.4" width="1.36" height="14.61" rx="0.68" ry="0.68" transform="translate(1305.9 -840.49) rotate(90)"/><rect class="cls-2" x="1034.63" y="225.4" width="1.36" height="14.61" rx="0.68" ry="0.68" transform="translate(1268.01 -802.6) rotate(90)"/><rect class="cls-2" x="1040.17" y="212" width="1.36" height="14.61" rx="0.68" ry="0.68" transform="translate(149.79 800.23) rotate(-45)"/><rect class="cls-2" x="1066.97" y="238.79" width="1.36" height="14.61" rx="0.68" ry="0.68" transform="translate(138.69 827.02) rotate(-45)"/><rect class="cls-3" x="29.25" y="130.08" width="1.36" height="14.61" rx="0.68" ry="0.68"/><rect class="cls-3" x="29.25" y="167.96" width="1.36" height="14.61" rx="0.68" ry="0.68"/><rect class="cls-3" x="42.65" y="135.62" width="1.36" height="14.61" rx="0.68" ry="0.68" transform="translate(113.76 11.23) rotate(45)"/><rect class="cls-3" x="15.86" y="162.41" width="1.36" height="14.61" rx="0.68" ry="0.68" transform="translate(124.85 38.02) rotate(45)"/><rect class="cls-3" x="48.2" y="149.02" width="1.36" height="14.61" rx="0.68" ry="0.68" transform="translate(205.2 107.45) rotate(90)"/><rect class="cls-3" x="10.31" y="149.02" width="1.36" height="14.61" rx="0.68" ry="0.68" transform="translate(167.31 145.34) rotate(90)"/><rect class="cls-3" x="15.86" y="135.62" width="1.36" height="14.61" rx="0.68" ry="0.68" transform="translate(-96.22 53.56) rotate(-45)"/><rect class="cls-3" x="42.65" y="162.41" width="1.36" height="14.61" rx="0.68" ry="0.68" transform="translate(-107.32 80.35) rotate(-45)"/><rect class="cls-1" x="660.17" width="1.36" height="14.61" rx="0.68" ry="0.68"/><rect class="cls-1" x="660.17" y="37.89" width="1.36" height="14.61" rx="0.68" ry="0.68"/><rect class="cls-1" x="673.57" y="5.55" width="1.36" height="14.61" rx="0.68" ry="0.68" transform="translate(206.57 -473) rotate(45)"/><rect class="cls-1" x="646.78" y="32.34" width="1.36" height="14.61" rx="0.68" ry="0.68" transform="translate(217.67 -446.21) rotate(45)"/><rect class="cls-1" x="679.12" y="18.94" width="1.36" height="14.61" rx="0.68" ry="0.68" transform="translate(706.05 -653.55) rotate(90)"/><rect class="cls-1" x="641.23" y="18.94" width="1.36" height="14.61" rx="0.68" ry="0.68" transform="translate(668.16 -615.66) rotate(90)"/><rect class="cls-1" x="646.78" y="5.55" width="1.36" height="14.61" rx="0.68" ry="0.68" transform="translate(180.54 461.58) rotate(-45)"/><rect class="cls-1" x="673.57" y="32.34" width="1.36" height="14.61" rx="0.68" ry="0.68" transform="translate(169.45 488.38) rotate(-45)"/><rect class="cls-1" x="171.57" y="300.45" width="1.36" height="14.61" rx="0.68" ry="0.68"/><rect class="cls-1" x="171.57" y="338.34" width="1.36" height="14.61" rx="0.68" ry="0.68"/><rect class="cls-1" x="184.97" y="306" width="1.36" height="14.61" rx="0.68" ry="0.68" transform="translate(275.92 -39.51) rotate(45)"/><rect class="cls-1" x="158.17" y="332.79" width="1.36" height="14.61" rx="0.68" ry="0.68" transform="translate(287.01 -12.71) rotate(45)"/><rect class="cls-1" x="190.51" y="319.4" width="1.36" height="14.61" rx="0.68" ry="0.68" transform="translate(517.9 135.51) rotate(90)"/><rect class="cls-1" x="152.63" y="319.4" width="1.36" height="14.61" rx="0.68" ry="0.68" transform="translate(480.01 173.4) rotate(90)"/><rect class="cls-1" x="158.17" y="306" width="1.36" height="14.61" rx="0.68" ry="0.68" transform="translate(-175.01 204.09) rotate(-45)"/><rect class="cls-1" x="184.97" y="332.79" width="1.36" height="14.61" rx="0.68" ry="0.68" transform="translate(-186.11 230.88) rotate(-45)"/><rect class="cls-4" x="179.93" y="17.4" width="1.36" height="14.61" rx="0.68" ry="0.68"/><rect class="cls-4" x="179.93" y="55.28" width="1.36" height="14.61" rx="0.68" ry="0.68"/><rect class="cls-4" x="193.33" y="22.94" width="1.36" height="14.61" rx="0.68" ry="0.68" transform="translate(78.21 -128.32) rotate(45)"/><rect class="cls-4" x="166.54" y="49.74" width="1.36" height="14.61" rx="0.68" ry="0.68" transform="translate(89.31 -101.53) rotate(45)"/><rect class="cls-4" x="198.88" y="36.34" width="1.36" height="14.61" rx="0.68" ry="0.68" transform="translate(243.2 -155.91) rotate(90)"/><rect class="cls-4" x="160.99" y="36.34" width="1.36" height="14.61" rx="0.68" ry="0.68" transform="translate(205.31 -118.02) rotate(90)"/><rect class="cls-4" x="166.54" y="22.94" width="1.36" height="14.61" rx="0.68" ry="0.68" transform="translate(27.59 127.1) rotate(-45)"/><rect class="cls-4" x="193.33" y="49.74" width="1.36" height="14.61" rx="0.68" ry="0.68" transform="translate(16.49 153.89) rotate(-45)"/><rect class="cls-3" x="905.34" y="293.17" width="1.36" height="14.61" rx="0.68" ry="0.68"/><rect class="cls-3" x="905.34" y="331.05" width="1.36" height="14.61" rx="0.68" ry="0.68"/><rect class="cls-3" x="918.74" y="298.71" width="1.36" height="14.61" rx="0.68" ry="0.68" transform="translate(485.69 -560.5) rotate(45)"/><rect class="cls-3" x="891.95" y="325.51" width="1.36" height="14.61" rx="0.68" ry="0.68" transform="translate(496.78 -533.71) rotate(45)"/><rect class="cls-3" x="924.29" y="312.11" width="1.36" height="14.61" rx="0.68" ry="0.68" transform="translate(1244.38 -605.55) rotate(90)"/><rect class="cls-3" x="886.4" y="312.11" width="1.36" height="14.61" rx="0.68" ry="0.68" transform="translate(1206.49 -567.66) rotate(90)"/><rect class="cls-3" x="891.95" y="298.71" width="1.36" height="14.61" rx="0.68" ry="0.68" transform="translate(45.06 720.81) rotate(-45)"/><rect class="cls-3" x="918.74" y="325.51" width="1.36" height="14.61" rx="0.68" ry="0.68" transform="translate(33.96 747.6) rotate(-45)"/><rect class="cls-4" x="1033.34" y="449.63" width="1.36" height="14.61" rx="0.68" ry="0.68"/><rect class="cls-4" x="1033.34" y="487.51" width="1.36" height="14.61" rx="0.68" ry="0.68"/><rect class="cls-4" x="1046.74" y="455.17" width="1.36" height="14.61" rx="0.68" ry="0.68" transform="translate(633.8 -605.18) rotate(45)"/><rect class="cls-4" x="1019.95" y="481.96" width="1.36" height="14.61" rx="0.68" ry="0.68" transform="translate(644.9 -578.39) rotate(45)"/><rect class="cls-4" x="1052.29" y="468.57" width="1.36" height="14.61" rx="0.68" ry="0.68" transform="translate(1528.84 -577.09) rotate(90)"/><rect class="cls-4" x="1014.4" y="468.57" width="1.36" height="14.61" rx="0.68" ry="0.68" transform="translate(1490.95 -539.2) rotate(90)"/><rect class="cls-4" x="1019.95" y="455.17" width="1.36" height="14.61" rx="0.68" ry="0.68" transform="translate(-28.09 857.15) rotate(-45)"/><rect class="cls-4" x="1046.74" y="481.96" width="1.36" height="14.61" rx="0.68" ry="0.68" transform="translate(-39.19 883.94) rotate(-45)"/><rect class="cls-2" x="25.57" y="417.03" width="1.36" height="14.61" rx="0.68" ry="0.68"/><rect class="cls-2" x="25.57" y="454.92" width="1.36" height="14.61" rx="0.68" ry="0.68"/><rect class="cls-2" x="38.97" y="422.58" width="1.36" height="14.61" rx="0.68" ry="0.68" transform="translate(315.59 97.88) rotate(45)"/><rect class="cls-2" x="12.17" y="449.37" width="1.36" height="14.61" rx="0.68" ry="0.68" transform="translate(326.69 124.67) rotate(45)"/><rect class="cls-2" x="44.51" y="435.98" width="1.36" height="14.61" rx="0.68" ry="0.68" transform="translate(488.48 398.09) rotate(90)"/><rect class="cls-2" x="6.63" y="435.98" width="1.36" height="14.61" rx="0.68" ry="0.68" transform="translate(450.59 435.98) rotate(90)"/><rect class="cls-2" x="12.17" y="422.58" width="1.36" height="14.61" rx="0.68" ry="0.68" transform="translate(-300.21 135) rotate(-45)"/><rect class="cls-2" x="38.97" y="449.37" width="1.36" height="14.61" rx="0.68" ry="0.68" transform="translate(-311.31 161.79) rotate(-45)"/></g></svg>